<svg width="311" height="57" viewBox="0 0 311 57" fill="none" xmlns="http://www.w3.org/2000/svg">
<g clip-path="url(#clip0_1_1651)">
<path d="M68.88 38.2199C69.97 39.5999 69.74 41.6099 68.36 42.6999C68.19 42.8399 68 42.9599 67.81 43.0499C66.62 43.7899 65.24 44.1699 63.84 44.1499C61.65 44.2199 59.49 43.6799 57.61 42.5799C55.92 41.5299 55.07 39.2899 55.07 35.8599V19.3899H52.32C50.52 19.4299 49.02 18.0099 48.98 16.2099V16.0499C48.96 15.1799 49.3 14.3499 49.93 13.7499C50.57 13.1299 51.43 12.7999 52.32 12.8299H55.07V9.00989C55.03 7.03989 56.6 5.40989 58.57 5.36989H58.71C59.66 5.34989 60.56 5.72989 61.22 6.40989C61.9 7.09989 62.26 8.03989 62.23 9.00989V12.8299H66.47C68.27 12.7899 69.77 14.2099 69.81 16.0099V16.1699C69.83 17.0399 69.48 17.8699 68.85 18.4699C68.21 19.0899 67.35 19.4199 66.46 19.3999H62.22V35.5699C62.16 36.2399 62.4 36.9099 62.88 37.3899C63.39 37.7899 64.02 37.9899 64.67 37.9499C65.12 37.9299 65.56 37.8499 65.98 37.7099C66.41 37.5199 66.88 37.4199 67.35 37.4099C67.95 37.4299 68.52 37.7299 68.88 38.2199" fill="#0C2E41"/>
<path d="M99.08 22.9999C98.33 21.5399 97.19 20.3099 95.8 19.4499C92.99 17.7799 89.48 17.7799 86.67 19.4499C85.27 20.3099 84.14 21.5399 83.39 22.9999C82.56 24.6099 82.13 26.4099 82.17 28.2199C82.13 30.0299 82.55 31.8099 83.39 33.4099C84.15 34.8599 85.28 36.0699 86.67 36.9299C89.48 38.5999 92.98 38.5999 95.8 36.9299C97.19 36.0799 98.33 34.8599 99.08 33.4099C99.92 31.8099 100.34 30.0199 100.3 28.2199C100.33 26.3999 99.91 24.6099 99.08 22.9999V22.9999ZM105.32 36.7899C103.95 39.2599 101.91 41.2899 99.44 42.6699C94.31 45.4499 88.12 45.4499 83 42.6699C80.54 41.2899 78.52 39.2499 77.15 36.7899C74.28 31.4399 74.28 25.0099 77.15 19.6599C78.52 17.1899 80.55 15.1499 83 13.7499C88.12 10.9199 94.33 10.9199 99.44 13.7499C101.9 15.1399 103.94 17.1899 105.32 19.6599C108.19 25.0099 108.19 31.4399 105.32 36.7899Z" fill="#0C2E41"/>
<path d="M168.43 38.2199C169.52 39.5999 169.29 41.6099 167.91 42.6999C167.74 42.8399 167.55 42.9599 167.35 43.0499C166.16 43.7899 164.78 44.1699 163.38 44.1499C161.19 44.2199 159.03 43.6799 157.14 42.5799C155.45 41.5299 154.6 39.2899 154.6 35.8599V19.3899H151.85C150.05 19.4299 148.55 18.0099 148.51 16.2099C148.51 16.1599 148.51 16.0999 148.51 16.0499C148.49 15.1799 148.84 14.3499 149.47 13.7499C150.11 13.1299 150.97 12.7999 151.86 12.8299H154.61V9.00989C154.57 7.03989 156.14 5.40989 158.11 5.36989H158.25C159.2 5.34989 160.11 5.72989 160.76 6.40989C161.43 7.09989 161.8 8.03989 161.77 9.00989V12.8299H166.01C167.81 12.7899 169.31 14.2099 169.35 16.0099C169.35 16.0599 169.35 16.1099 169.35 16.1699C169.37 17.0399 169.02 17.8699 168.39 18.4699C167.75 19.0899 166.89 19.4199 166 19.3999H161.76V35.5699C161.7 36.2399 161.94 36.9099 162.42 37.3899C162.93 37.7899 163.57 37.9899 164.21 37.9499C164.66 37.9299 165.1 37.8499 165.53 37.7099C165.96 37.5199 166.43 37.4199 166.9 37.4099C167.5 37.4299 168.07 37.7299 168.43 38.2199" fill="#0C2E41"/>
<path d="M201.58 15.2501C203.09 17.6601 203.85 20.9901 203.85 25.2401V40.5201C203.88 41.4901 203.51 42.4201 202.84 43.1201C201.41 44.5101 199.13 44.5101 197.71 43.1201C197.03 42.4301 196.67 41.4901 196.7 40.5201V25.2401C196.8 23.4301 196.35 21.6301 195.42 20.0801C194.34 18.7201 192.64 18.0101 190.92 18.2001C188.97 18.0901 187.07 18.8201 185.7 20.2001C184.44 21.5701 183.76 23.3801 183.82 25.2401V40.5201C183.85 41.4901 183.48 42.4201 182.81 43.1201C181.38 44.5101 179.11 44.5101 177.68 43.1201C177 42.4301 176.64 41.4901 176.67 40.5201V3.64006C176.64 2.67006 177.01 1.74006 177.68 1.04006C179.11 -0.349941 181.38 -0.349941 182.81 1.04006C183.48 1.73006 183.85 2.67006 183.82 3.64006V16.8301C184.94 15.3601 186.33 14.1101 187.91 13.1601C189.57 12.1401 191.48 11.6201 193.43 11.6401C197.37 11.6401 200.09 12.8401 201.61 15.2501" fill="#0C2E41"/>
<path d="M136.44 22.9999C135.69 21.5399 134.56 20.3099 133.16 19.4499C130.35 17.7799 126.85 17.7799 124.03 19.4499C122.63 20.3099 121.5 21.5399 120.75 22.9999C119.91 24.6099 119.49 26.4099 119.53 28.2199C119.49 30.0199 119.92 31.8099 120.75 33.4099C121.51 34.8599 122.64 36.0699 124.03 36.9299C126.84 38.5999 130.35 38.5999 133.16 36.9299C134.55 36.0799 135.69 34.8599 136.44 33.4099C137.28 31.8099 137.7 30.0199 137.66 28.2199C137.69 26.3999 137.27 24.6099 136.43 22.9999H136.44ZM142.68 36.7899C141.31 39.2599 139.27 41.2899 136.8 42.6699C131.67 45.4499 125.48 45.4499 120.36 42.6699C117.9 41.2899 115.88 39.2499 114.51 36.7899C111.64 31.4399 111.64 25.0099 114.51 19.6599C115.88 17.1899 117.91 15.1499 120.36 13.7499C125.48 10.9199 131.68 10.9199 136.8 13.7499C139.27 15.1399 141.3 17.1899 142.68 19.6599C145.55 25.0099 145.55 31.4399 142.68 36.7899Z" fill="#0C2E41"/>
<path d="M213.15 29.19V15.22C213.15 14.43 213.82 13.76 214.61 13.76C215.46 13.76 216.14 14.43 216.14 15.22V19.55C218.7 16.07 222.85 13.76 227.48 13.76C235.53 13.76 241.93 20.41 241.93 28.58C241.93 36.75 235.53 43.46 227.48 43.46C222.85 43.46 218.7 41.14 216.14 37.61V54.69C216.14 55.48 215.47 56.15 214.61 56.15C213.82 56.15 213.15 55.48 213.15 54.69V29.19ZM216.14 28.58C216.14 35.17 221.32 40.47 227.48 40.53C233.82 40.47 238.94 35.16 238.94 28.58C238.94 22 233.82 16.75 227.48 16.75C221.14 16.75 216.38 21.75 216.14 28.09V28.58V28.58Z" fill="#0C2E41"/>
<path d="M276.7 15.22V42.17C276.7 42.96 276.03 43.63 275.24 43.63C274.45 43.63 273.78 42.96 273.78 42.17V37.72C271.22 41.26 267.13 43.63 262.56 43.63C254.7 43.63 248.41 36.86 248.41 28.69C248.41 20.52 254.69 13.75 262.56 13.75C267.14 13.75 271.22 16.07 273.78 19.61V15.22C273.78 14.37 274.45 13.76 275.24 13.76C276.03 13.76 276.7 14.37 276.7 15.22V15.22ZM273.77 28.7C273.77 21.99 268.71 16.62 262.55 16.62C256.39 16.62 251.33 21.99 251.33 28.7C251.33 35.41 256.45 40.71 262.55 40.71C268.65 40.71 273.77 35.41 273.77 28.7" fill="#0C2E41"/>
<path d="M286.13 15.16C286.13 14.37 286.8 13.76 287.53 13.76C288.38 13.76 289.05 14.37 289.05 15.16V31.38C289.05 36.5 293.14 40.59 298.2 40.59C303.26 40.59 307.41 36.5 307.47 31.38V15.16C307.47 14.92 307.53 14.61 307.71 14.43C307.71 14.37 307.77 14.31 307.77 14.25C307.83 14.25 307.83 14.19 307.89 14.19C308.01 14.01 308.26 13.88 308.44 13.82H308.56C308.62 13.82 308.68 13.76 308.74 13.76H309.1C309.34 13.82 309.59 13.94 309.83 14.07C309.95 14.19 310.13 14.37 310.19 14.56C310.31 14.74 310.37 14.99 310.37 15.17V41.27C310.37 49.08 304.03 55.3 296.16 55.3C293.97 55.3 291.89 54.75 290 53.9C289.33 53.47 289.03 52.62 289.39 51.95C289.76 51.22 290.55 51.03 291.28 51.22C292.74 51.95 294.45 52.38 296.16 52.38C302.38 52.38 307.38 47.44 307.44 41.28V39.33C305.18 41.89 301.89 43.6 298.17 43.6C291.52 43.54 286.1 38.11 286.1 31.4V15.16H286.13Z" fill="#0C2E41"/>
<path opacity="0.25" d="M20.14 0C21.46 0 22.77 0.13 24.07 0.39C25.37 0.65 26.63 1.03 27.85 1.54C29.07 2.05 30.23 2.67 31.33 3.4C32.43 4.13 33.45 4.97 34.38 5.91C35.32 6.84 36.15 7.86 36.89 8.96C37.62 10.06 38.25 11.22 38.75 12.44C39.26 13.66 39.64 14.92 39.9 16.22C40.16 17.52 40.29 18.83 40.29 20.15C40.29 21.47 40.16 22.78 39.9 24.08C39.64 25.38 39.26 26.64 38.75 27.86C38.24 29.08 37.62 30.24 36.89 31.34C36.16 32.44 35.32 33.46 34.38 34.39C33.45 35.32 32.43 36.16 31.33 36.9C30.23 37.63 29.07 38.26 27.85 38.76C26.63 39.27 25.37 39.65 24.07 39.91C22.77 40.17 21.46 40.3 20.14 40.3C18.82 40.3 17.51 40.17 16.21 39.91C14.91 39.65 13.65 39.27 12.43 38.76C11.21 38.25 10.05 37.63 8.94999 36.9C7.84999 36.17 6.82999 35.33 5.89999 34.39C4.96999 33.46 4.12999 32.44 3.38999 31.34C2.65999 30.24 2.03999 29.08 1.52999 27.86C1.01999 26.64 0.63999 25.38 0.37999 24.08C0.11999 22.78 -0.0100098 21.47 -0.0100098 20.15C-0.0100098 18.83 0.11999 17.52 0.37999 16.22C0.63999 14.93 1.01999 13.66 1.52999 12.44C2.03999 11.22 2.65999 10.06 3.38999 8.96C4.11999 7.86 4.95999 6.84 5.89999 5.91C6.82999 4.98 7.84999 4.14 8.94999 3.4C10.05 2.67 11.21 2.05 12.43 1.54C13.65 1.03 14.91 0.65 16.21 0.39C17.51 0.13 18.81 0 20.14 0" fill="#21D9AD"/>
<path opacity="0.5" d="M20.14 5.12012C21.13 5.12012 22.1 5.22012 23.07 5.41012C24.04 5.60012 24.97 5.89012 25.89 6.26012C26.8 6.64012 27.67 7.10012 28.49 7.65012C29.31 8.20012 30.07 8.82012 30.76 9.52012C31.46 10.2201 32.08 10.9801 32.63 11.8001C33.18 12.6201 33.64 13.4901 34.02 14.4001C34.4 15.3101 34.68 16.2501 34.87 17.2201C35.06 18.1901 35.16 19.1601 35.16 20.1501C35.16 21.1401 35.06 22.1101 34.87 23.0801C34.68 24.0501 34.39 24.9901 34.02 25.9001C33.64 26.8101 33.18 27.6801 32.63 28.5001C32.08 29.3201 31.46 30.0801 30.76 30.7701C30.06 31.4701 29.3 32.0901 28.49 32.6401C27.67 33.1901 26.8 33.6501 25.89 34.0301C24.98 34.4101 24.04 34.6901 23.07 34.8801C22.1 35.0701 21.13 35.1701 20.14 35.1701C19.15 35.1701 18.18 35.0701 17.21 34.8801C16.24 34.6901 15.3 34.4001 14.39 34.0301C13.48 33.6601 12.61 33.1901 11.79 32.6401C10.97 32.0901 10.21 31.4701 9.50999 30.7701C8.80999 30.0701 8.18999 29.3201 7.63999 28.5001C7.08999 27.6801 6.62999 26.8101 6.24999 25.9001C5.86999 24.9901 5.58999 24.0501 5.39999 23.0801C5.20999 22.1101 5.10999 21.1401 5.10999 20.1501C5.10999 19.1601 5.20999 18.1901 5.39999 17.2201C5.58999 16.2501 5.87999 15.3101 6.24999 14.4001C6.62999 13.4901 7.08999 12.6201 7.63999 11.8001C8.18999 10.9801 8.80999 10.2201 9.50999 9.52012C10.21 8.82012 10.97 8.20012 11.79 7.65012C12.61 7.10012 13.48 6.64012 14.39 6.26012C15.3 5.88012 16.24 5.60012 17.21 5.41012C18.18 5.22012 19.15 5.12012 20.14 5.12012Z" fill="#21D9AD"/>
<path d="M20.14 11.4299C20.71 11.4299 21.28 11.4899 21.84 11.5999C22.4 11.7099 22.95 11.8799 23.47 12.0999C24 12.3199 24.5 12.5899 24.98 12.9099C25.46 13.2299 25.9 13.5899 26.3 13.9899C26.7 14.3899 27.07 14.8399 27.38 15.3099C27.7 15.7899 27.97 16.2899 28.18 16.8199C28.4 17.3499 28.56 17.8899 28.68 18.4599C28.8 19.0299 28.85 19.5899 28.85 20.1599C28.85 20.7299 28.79 21.2999 28.68 21.8599C28.57 22.4199 28.4 22.9699 28.18 23.4899C27.96 24.0199 27.69 24.5199 27.38 24.9999C27.06 25.4799 26.7 25.9199 26.3 26.3199C25.9 26.7199 25.46 27.0899 24.98 27.3999C24.51 27.7199 24 27.9899 23.47 28.1999C22.94 28.4199 22.4 28.5799 21.84 28.6999C21.28 28.8099 20.71 28.8699 20.14 28.8699C19.57 28.8699 19 28.8099 18.44 28.6999C17.88 28.5899 17.33 28.4199 16.8 28.1999C16.27 27.9799 15.77 27.7099 15.3 27.3999C14.82 27.0799 14.38 26.7199 13.98 26.3199C13.58 25.9199 13.21 25.4799 12.9 24.9999C12.58 24.5199 12.31 24.0199 12.09 23.4899C11.87 22.9599 11.71 22.4199 11.59 21.8599C11.48 21.2999 11.42 20.7299 11.42 20.1599C11.42 19.5899 11.48 19.0199 11.59 18.4599C11.7 17.8999 11.87 17.3499 12.09 16.8199C12.31 16.2899 12.58 15.7899 12.9 15.3099C13.22 14.8399 13.58 14.3899 13.98 13.9899C14.38 13.5899 14.82 13.2299 15.3 12.9099C15.77 12.5899 16.28 12.3199 16.8 12.0999C17.33 11.8799 17.87 11.7199 18.44 11.5999C19 11.4899 19.57 11.4299 20.14 11.4299" fill="#21D9AD"/>
<path d="M21.09 43.7401C20.51 44.3301 19.56 44.3501 18.97 43.7701C18.67 43.4801 18.51 43.0801 18.52 42.6701V19.6601C18.5 18.8301 19.15 18.1401 19.98 18.1201C20.81 18.1001 21.5 18.7501 21.52 19.5801V42.6601C21.53 43.0601 21.38 43.4501 21.1 43.7301" fill="#0C2E41"/>
</g>
<defs>
<clipPath id="clip0_1_1651">
<rect width="310.4" height="56.14" fill="white"/>
</clipPath>
</defs>
</svg>
